<svg width="68" height="30" viewBox="0 0 68 30" fill="none" xmlns="http://www.w3.org/2000/svg">
<g clip-path="url(#clip0_165_1364)">
<path fill-rule="evenodd" clip-rule="evenodd" d="M0 17.8022C0 19.0593 0.0486806 19.8784 0.348878 21.0788C0.535487 21.8249 0.803231 22.5143 1.11154 23.2037C1.3306 23.6903 1.60646 24.1363 1.8742 24.5905C2.27176 25.2637 2.79914 25.8152 3.29406 26.3991C3.45633 26.5938 3.67539 26.7479 3.84577 26.9263C3.96747 27.0561 4.08917 27.1453 4.2271 27.2588C4.30012 27.3237 4.33258 27.3561 4.41371 27.421L5.03845 27.8833C5.74432 28.4024 6.1581 28.5727 6.87208 28.9376C7.18039 29.0917 7.5455 29.2377 7.88626 29.3513C9.02215 29.7487 10.2392 29.9677 11.4724 30.0001H12.1458C13.2492 29.9677 14.3446 29.7892 15.3669 29.4405L16.519 29.0025C17.4926 28.5808 18.6609 27.8671 19.4317 27.1453C19.7075 26.8857 19.9915 26.6505 20.2511 26.3748C20.381 26.2369 20.4946 26.0747 20.6406 25.9449C20.738 26.1234 21.5818 26.902 21.7521 27.0317C22.5797 27.7049 23.5452 28.3699 24.5432 28.7754L25.6385 29.1891C25.8413 29.2539 26.0198 29.3026 26.2308 29.3675L27.1395 29.5702C27.2693 29.5865 27.3829 29.6108 27.4883 29.6189C30.0522 30.0001 32.6809 29.4243 34.8959 28.1104C35.0338 28.0293 35.1312 27.9563 35.2691 27.8752C35.5206 27.7292 35.7478 27.5427 35.9831 27.3724C36.1048 27.2831 36.2103 27.202 36.3158 27.0966C36.3807 27.0398 36.4131 27.0236 36.478 26.9668L36.9729 26.5127C36.9973 26.4883 36.9811 26.5046 37.0135 26.4721C37.0135 26.4721 37.0216 26.464 37.0297 26.4559L37.1758 26.3099C37.2894 26.1801 37.4435 26.0585 37.549 25.9206C37.8086 25.5719 38.0277 25.3448 38.3603 24.8987C38.4496 24.7771 38.5226 24.6635 38.6037 24.5337C38.766 24.2904 38.9283 24.039 39.0581 23.7714C39.1311 23.6173 39.196 23.52 39.2691 23.374C39.5206 22.8792 40.0561 21.6627 40.0966 21.1599C40.2508 21.3383 40.4617 21.8168 40.5753 22.0277C40.7376 22.3196 40.8674 22.6278 41.0459 22.9117L42.9201 26.4397C42.9769 26.5613 43.0256 26.6181 43.0824 26.7316C43.3014 27.1696 43.6097 27.8103 43.8856 28.1753C44.1533 28.5321 44.4454 28.7917 44.8349 29.0269C45.9302 29.6838 47.3987 29.5702 48.3886 28.7917C48.4859 28.7187 48.5589 28.6538 48.6401 28.5727C48.8023 28.4105 48.9646 28.2402 49.0863 28.0374C49.3703 27.5751 49.6948 26.8614 49.9301 26.4721C49.995 26.3586 50.0356 26.2775 50.0924 26.1639L50.9281 24.5905C50.993 24.4608 51.0498 24.3797 51.1066 24.2661C51.4717 23.5281 51.8936 22.7981 52.2749 22.0682L52.7942 21.1031C53.2485 20.2677 53.6704 19.4161 54.141 18.5808L55.1471 16.6749C55.212 16.5613 55.2525 16.4883 55.3174 16.3667C55.3823 16.2369 55.431 16.172 55.4959 16.0423L55.8367 15.4015C55.9016 15.2961 55.9422 15.1988 55.999 15.0852L57.8488 11.614C58.4249 10.5678 58.3762 9.35126 57.7758 8.33747C57.7109 8.22393 57.6622 8.17527 57.5892 8.06983L57.3296 7.77786C57.289 7.73731 57.3133 7.76164 57.2728 7.7292L56.9077 7.42912C56.6318 7.21825 56.3316 7.0966 55.999 6.99116C55.5446 6.83707 54.9523 6.82085 54.4493 6.91817C53.7272 7.06416 53.2323 7.39668 52.7455 7.86708C52.6157 7.99684 52.4453 8.22393 52.356 8.37803L51.9017 9.24583C51.853 9.34315 51.7962 9.43237 51.7475 9.5378C51.6502 9.73245 51.5528 9.9352 51.4473 10.138L47.8368 17.1777C47.7882 17.275 47.7314 17.3724 47.6827 17.4697L47.3906 18.0455C47.3582 18.1023 47.35 18.1266 47.3176 18.1834C47.2932 18.232 47.3014 18.2158 47.2851 18.2564C47.2608 18.2969 47.2689 18.2969 47.2446 18.3456C46.9606 18.8484 46.6928 19.335 46.5549 19.9028L46.4819 20.1461C46.4819 20.1542 46.4738 20.1785 46.4657 20.1866C46.4413 20.2434 46.4576 20.211 46.4413 20.2353C46.3683 19.9109 46.2791 19.554 46.1249 19.2539C46.0762 19.1566 46.0275 19.0593 45.9708 18.9539L40.7214 8.73488C40.6889 8.67811 40.6808 8.66189 40.6483 8.597C40.2102 7.72109 39.2366 6.97494 38.1656 6.8614C38.052 6.85329 37.833 6.82085 37.7437 6.82896C36.551 6.92628 35.5531 7.46156 34.9933 8.50779C34.5795 9.27827 34.5146 10.1136 34.7499 10.9571C34.904 11.5167 35.4233 12.3277 35.7072 12.8874C35.764 13.0009 35.8127 13.082 35.8776 13.1955L37.0541 15.4097C35.0987 15.4097 33.1515 15.4097 31.1962 15.4097C30.3199 15.4097 29.5248 15.4745 28.9244 16.0747C28.6567 16.3423 28.4619 16.5532 28.2916 16.902C27.5776 18.3213 28.2104 20.1461 29.7033 20.7138C30.2956 20.9409 30.8554 20.8922 31.6424 20.8922C32.3564 20.8922 33.0704 20.8922 33.7925 20.8922C33.6951 21.0706 33.5491 21.2653 33.4193 21.4194C32.8838 22.0358 32.7053 22.2304 31.9751 22.7008C31.9183 22.7414 31.902 22.7495 31.8453 22.7819C31.7885 22.8063 31.756 22.8306 31.6911 22.863C30.3118 23.5686 28.3402 23.6822 26.961 22.9847C26.5391 22.7738 26.1415 22.5386 25.7926 22.2223C25.4437 21.9141 25.1436 21.5654 24.8677 21.1842C24.7784 21.0544 24.7054 20.9247 24.6243 20.7868C23.8697 19.4729 23.6994 17.7373 24.1862 16.2937C24.2673 16.0585 24.3403 15.8476 24.4377 15.6449L24.9488 14.7771C25.1922 14.4202 25.5005 14.112 25.8251 13.8281C26.2389 13.4551 26.7257 13.1793 27.2449 12.9685C28.3727 12.5143 28.6161 12.8225 29.679 11.7519C29.8331 11.5978 29.9467 11.3951 30.0603 11.2085C30.5309 10.438 30.5877 9.2215 30.1982 8.41047C30.036 8.06983 29.8331 7.76164 29.5735 7.494L29.4761 7.40479C29.2571 7.21014 29.038 7.02361 28.7703 6.89384C27.4478 6.2288 25.8332 6.75597 24.5756 7.29125L23.4803 7.84275C22.7663 8.27259 22.2227 8.64567 21.5818 9.20528C21.314 9.43237 20.957 9.74867 20.7542 10.0163L20.527 10.2677C20.097 10.7787 19.6994 11.2977 19.3506 11.8736C19.1802 12.1574 19.0422 12.4007 18.8881 12.7089C18.1011 14.2742 17.6224 15.9693 17.6224 18.0131C17.6224 18.5889 17.663 19.1404 17.736 19.6757C17.7441 19.7324 17.7847 19.9352 17.7847 20.0001C17.7765 20.1461 17.5494 20.4218 17.4601 20.5516L16.308 21.9141L15.8212 22.3277C15.7563 22.3764 15.6995 22.4251 15.6265 22.4818C15.5454 22.5386 15.4886 22.5711 15.4074 22.6359C14.6042 23.2199 13.233 23.7389 12.1864 23.7389C11.87 23.7389 11.5211 23.7633 11.1965 23.7227C11.0667 23.7065 10.9937 23.6984 10.8639 23.6822C10.5069 23.6254 10.0526 23.4956 9.74424 23.3659C8.44609 22.8306 7.39946 21.8573 6.79095 20.6003C5.95527 18.8565 6.10131 16.8533 7.08303 15.2069C7.53739 14.4445 8.20269 13.8119 8.96535 13.3496L9.68745 12.9847L10.4907 12.7251C10.7665 12.644 11.083 12.6116 11.3913 12.5711C12.2188 12.4494 12.8355 12.5143 13.5251 12.0277C13.5738 11.9952 13.6225 11.9547 13.6793 11.9141C14.3364 11.3788 14.88 10.5597 14.88 9.6189C14.88 8.91331 14.7908 8.40236 14.4581 7.84275C14.4095 7.76164 14.377 7.69676 14.3121 7.61566C13.9632 7.15337 13.6062 6.84518 13.0626 6.58565C11.8781 6.00982 9.90651 6.42344 8.79497 6.68297L7.9674 6.93439C7.77268 6.99927 7.62663 7.05605 7.44814 7.12904C7.26964 7.20203 7.10737 7.27503 6.92888 7.34802C6.2798 7.61566 5.66318 8.01306 5.08713 8.39425C4.51107 8.77543 3.99181 9.23772 3.50501 9.72434C3.25349 9.97576 3.03443 10.1866 2.81536 10.4624C2.27176 11.1355 1.7525 11.833 1.36306 12.6116C1.31438 12.7089 1.27381 12.7657 1.23324 12.8549C1.18456 12.9603 1.16022 13.0171 1.11965 13.1063L0.697756 14.1201C0.275857 15.2393 0.00811344 16.5613 0.00811344 17.8022H0Z" fill="#EE2E24"/>
<path fill-rule="evenodd" clip-rule="evenodd" d="M63.9986 7.23478L64.0067 7.17801C63.8688 7.14557 63.6984 7.07257 63.5686 7.02391C63.0088 6.81305 63.2116 6.81305 62.668 7.0158C62.5301 7.06446 62.3354 7.12124 62.2218 7.17801V6.40753L61.0291 5.74249L60.948 5.73438C60.6478 5.87225 59.6742 6.18855 59.4794 6.29399C58.5221 6.82927 59.163 8.37833 60.307 7.91605L61.7918 7.36455C61.8891 7.3321 62.0839 7.23478 62.1893 7.22667C62.1893 7.57541 62.1488 8.53243 62.2056 8.80007C62.3435 9.457 63.1305 9.75708 63.6822 9.31913C63.8282 9.20558 63.9499 9.01905 63.9986 8.80818C64.0392 8.62164 64.0716 7.4051 63.9986 7.21856V7.23478Z" fill="#EE2E24"/>
<path fill-rule="evenodd" clip-rule="evenodd" d="M63.1064 3.15491V3.26034L63.577 4.58232C63.6987 4.57421 64.4371 4.13625 64.5993 4.03893C64.6805 3.99027 64.6805 3.9335 64.7129 4.0146C64.7697 3.92539 64.6967 3.97405 64.7859 3.89294L65.6541 1.4193C65.7271 1.20843 65.7758 1.14355 65.7677 0.875913C65.7677 0.397405 65.4107 0.0648824 65.005 0H64.721C64.5425 0.0324412 64.3721 0.113544 64.2261 0.25953C64.0801 0.405515 64.0638 0.462287 63.9827 0.673155L63.1064 3.15491Z" fill="#F26F21"/>
<path fill-rule="evenodd" clip-rule="evenodd" d="M61.4352 3.90916L61.4839 3.98216L62.3358 4.45256C62.4412 4.51744 62.5305 4.54988 62.6197 4.61476L63.0984 3.26034V3.15491L62.4007 1.16788C62.2546 0.754258 62.141 0.137875 61.565 0.0162206C61.5406 0.0081103 61.5082 0.0081103 61.4839 0H61.208C60.8023 0.0567721 60.4616 0.364964 60.4291 0.859692C60.4129 1.11922 60.6238 1.63828 60.7212 1.8897C60.851 2.23033 60.9484 2.56286 61.0701 2.88727C61.135 3.04947 61.1837 3.21168 61.2405 3.37389C61.2729 3.47121 61.2891 3.53609 61.3297 3.63341C61.3703 3.73885 61.3946 3.78751 61.4189 3.90105L61.4352 3.90916Z" fill="#EE2E24"/>
<path fill-rule="evenodd" clip-rule="evenodd" d="M64.7939 3.89329C64.7047 3.97439 64.7777 3.92573 64.7209 4.01495L64.2422 5.37748L65.1996 5.73433H65.2807L67.2604 4.59889C67.6093 4.40424 68.1204 4.14471 67.9744 3.45533C67.8608 2.93628 67.3334 2.65242 66.8385 2.77407C66.66 2.82273 65.4835 3.52022 65.2158 3.6662C65.0698 3.74731 64.9481 3.82841 64.802 3.89329H64.7939Z" fill="#EE2E24"/>
<path fill-rule="evenodd" clip-rule="evenodd" d="M60.9566 5.74213L61.0378 5.75024C61.1351 5.66914 61.8491 5.45016 61.9952 5.37716C61.9465 5.27173 61.914 5.14197 61.8735 5.02842L61.6219 4.32283C61.5895 4.21739 61.5408 4.07141 61.4921 3.97408L61.4435 3.90109L60.2427 3.21171C60.1372 3.15494 59.5449 2.8062 59.4313 2.77376C59.2853 2.73321 59.0013 2.73321 58.8553 2.78998C58.5794 2.8873 58.3036 3.16305 58.263 3.47124C58.1494 4.29849 58.7741 4.46881 59.3664 4.82566L60.5672 5.50693C60.6564 5.55559 60.908 5.68536 60.9648 5.73402L60.9566 5.74213Z" fill="#F26F21"/>
<path fill-rule="evenodd" clip-rule="evenodd" d="M64.0069 7.17801L63.9988 7.23478C64.1205 7.24289 64.6317 7.44565 64.7696 7.50242C64.8913 7.55108 65.0049 7.59163 65.1347 7.6403L65.8812 7.92416C66.3031 8.09447 66.7168 8.01337 66.9927 7.66463C67.3578 7.20234 67.1874 6.5454 66.7331 6.3021C66.6195 6.24532 66.4978 6.20477 66.368 6.15611L65.2645 5.73438H65.1834L63.9907 6.40753L63.9988 7.17801H64.0069Z" fill="#F26F21"/>
</g>
<defs>
<clipPath id="clip0_165_1364">
<rect width="68" height="30" fill="white"/>
</clipPath>
</defs>
</svg>
