<svg width="132" height="30" viewBox="0 0 132 30" fill="none" xmlns="http://www.w3.org/2000/svg">
<path d="M8.75874 20.0367C6.76222 20.0367 5.10388 18.6102 4.73127 16.7073L0.26416 17.5736C1.02629 21.5826 4.54527 24.606 8.75874 24.606C11.1611 24.606 13.3267 23.6208 14.9011 22.041L11.2456 19.2044C10.5517 19.7142 9.68935 20.0367 8.75874 20.0367ZM8.75874 11.7986C9.68935 11.7986 10.5517 12.1211 11.2456 12.6478L14.9011 9.81127C13.3267 8.23198 11.1611 7.24632 8.75874 7.24632C4.54527 7.24632 1.02629 10.2702 0.26416 14.2787L4.73127 15.162C5.08697 13.2425 6.74531 11.7986 8.75874 11.7986ZM70.3822 20.6484C68.1151 20.6484 66.4567 18.9837 66.2032 16.5375V15.2468C66.4567 12.8347 68.1151 11.1705 70.3822 11.1705C72.9717 11.1705 74.7985 13.1238 74.7985 15.8919C74.7816 18.6951 72.9717 20.6484 70.3822 20.6484ZM71.7192 7.24632C69.4178 7.24632 67.5063 8.24843 66.1862 9.94707V7.62035H61.5161V29.7354H66.1862V21.8712C67.4894 23.6038 69.4178 24.606 71.7192 24.606C76.1356 24.606 79.3332 21.0049 79.3332 15.9088C79.3332 10.8303 76.1356 7.24632 71.7192 7.24632ZM90.2303 20.6484C87.7427 20.6484 85.6617 18.4744 85.6617 15.8919C85.6617 13.3274 87.7427 11.1705 90.2303 11.1705C92.6833 11.1705 94.765 13.3274 94.765 15.8919C94.7819 18.4744 92.7002 20.6484 90.2303 20.6484ZM90.2303 7.24632C85.3065 7.24632 81.1776 11.1874 81.1776 15.9088C81.1776 20.6314 85.3065 24.606 90.2303 24.606C95.1201 24.606 99.2146 20.6314 99.2146 15.9088C99.2146 11.1874 95.1201 7.24632 90.2303 7.24632ZM101.432 24.2155H106.101V1.79377H101.432V24.2155ZM123.834 13.9215C121.6 13.3105 120.924 13.0558 120.924 12.1557C120.924 11.5779 121.719 11.1536 122.87 11.1536C124.274 11.1536 126 11.6968 127.506 12.6309L129.384 9.30206C127.557 8.07865 125.221 7.24632 122.87 7.24632C118.978 7.24632 116.389 9.48877 116.406 12.6309C116.44 15.9088 119.063 16.8437 122.446 17.676C124.139 18.1174 125.357 18.4405 125.357 19.476C125.357 20.2065 124.46 20.7333 123.208 20.7333C121.008 20.7333 119.147 19.9349 117.675 18.8649L115.678 22.0919C117.658 23.6887 120.467 24.589 123.123 24.589C127.185 24.589 129.841 22.4999 129.841 19.2383C129.841 15.6203 126.677 14.6521 123.834 13.9215ZM109.164 24.2155H113.834V7.62035H109.164V24.2155ZM111.516 0.282461C110.078 0.282461 108.961 1.47127 108.961 2.77943C108.961 4.18909 110.078 5.34453 111.516 5.34453C112.887 5.34453 114.003 4.18909 114.003 2.77943C114.021 1.47127 112.903 0.282461 111.516 0.282461ZM55.0863 1.81131H50.4163L48.6735 5.3779H53.3435L55.0863 1.81131ZM47.4554 14.075C48.0648 12.4102 49.5364 11.3741 51.2963 11.3741C53.192 11.3741 54.3925 12.4273 54.8496 14.075H47.4554ZM51.1103 7.22987C46.288 7.22987 42.5994 10.8643 42.5994 15.8585C42.5994 20.954 46.4403 24.589 51.3638 24.589C53.8006 24.589 56.6433 23.5699 58.1155 22.024L55.1372 18.9667C54.2403 19.833 52.6503 20.4441 51.3301 20.4441C49.3843 20.4441 47.9458 19.2213 47.4047 17.4208H59.3168C59.3168 11.1874 56.2875 7.22987 51.1103 7.22987ZM34.4097 7.24632C32.2611 7.24632 30.4167 8.19753 29.4184 9.70946V7.62035H24.7484V24.2155H29.4184V14.3805C29.4184 12.58 30.9578 11.1874 32.9036 11.1874C34.7654 11.1874 36.0343 12.5969 36.0343 14.6521V24.2155H40.5345V13.6499C40.5521 9.89616 37.9969 7.24632 34.4097 7.24632ZM19.1308 0.26539C17.6923 0.26539 16.5758 1.4542 16.5758 2.76189C16.5758 4.17202 17.6923 5.32746 19.1308 5.32746C20.5011 5.32746 21.6184 4.17202 21.6184 2.76189C21.6184 1.4542 20.5011 0.26539 19.1308 0.26539ZM16.7617 24.2155H21.4318V7.62035H16.7617V24.2155Z" fill="#212E5C"/>
<path d="M131.736 23.6717C131.736 24.2325 131.296 24.6738 130.721 24.6738C130.146 24.6738 129.688 24.2325 129.688 23.6717C129.688 23.1109 130.146 22.6696 130.721 22.6696C131.296 22.6866 131.736 23.1285 131.736 23.6717ZM129.943 23.6717C129.943 24.1137 130.263 24.4701 130.721 24.4701C131.161 24.4701 131.482 24.1137 131.482 23.6717C131.482 23.2298 131.161 22.8733 130.721 22.8733C130.281 22.8733 129.943 23.2298 129.943 23.6717ZM130.568 24.1985H130.332V23.1958C130.416 23.1788 130.551 23.1619 130.721 23.1619C130.907 23.1619 130.991 23.1958 131.059 23.2298C131.11 23.2807 131.161 23.3492 131.161 23.4504C131.161 23.5529 131.076 23.6378 130.957 23.6887V23.7057C131.059 23.7396 131.11 23.8075 131.143 23.9433C131.178 24.0967 131.195 24.164 131.212 24.1985H130.957C130.924 24.164 130.907 24.0621 130.873 23.9603C130.856 23.8584 130.788 23.8075 130.67 23.8075H130.568V24.1985ZM130.568 23.6378H130.67C130.805 23.6378 130.907 23.5868 130.907 23.485C130.907 23.4001 130.84 23.3316 130.687 23.3316C130.619 23.3316 130.585 23.3316 130.551 23.3492L130.568 23.6378Z" fill="#212E5C"/>
</svg>
